<?xml version="1.0" encoding="utf-8"?>
<!-- Generator: Adobe Illustrator 22.1.0, SVG Export Plug-In . SVG Version: 6.00 Build 0)  -->
<svg version="1.1" xmlns="http://www.w3.org/2000/svg" xmlns:xlink="http://www.w3.org/1999/xlink" x="0px" y="0px"
	 viewBox="0 0 48 48.2" style="enable-background:new 0 0 48 48.2;" xml:space="preserve">
<style type="text/css">
	.st0{fill:#FFFFFF;}
</style>
<g id="Layer_2">
</g>
<g id="Layer_1">
	<title>speakup-hand-logo-white</title>
	<path class="st0" d="M46.1,17.8L46.1,17.8c-0.6-0.5-1.3-0.9-2.1-1l1.3-1.5c1.5-1.7,1.4-4.2-0.3-5.8l-0.1-0.1
		c-0.6-0.5-1.3-0.9-2.1-1l0.7-0.8c1.5-1.7,1.4-4.2-0.3-5.8l-0.1-0.1c-1.7-1.5-4.2-1.4-5.8,0.3l-0.1,0.1L36,3.7
		c-0.2-0.8-0.7-1.5-1.3-2C33.1,0.2,30.5,0.3,29,2l-0.1,0.1l-6.5,7.2c-0.3-2.4-1.9-3.4-3.1-4.6c-0.4-0.3-1-0.3-1.4,0.1l-13,14.7
		C-1.3,26.3-0.8,36.8,6,43l0.3,0.3c7.5,6.7,17.8,4.1,20.4,1.7c2.8-1.8,2.3-1.6,19.8-21.2C47.9,22,47.8,19.3,46.1,17.8z M7.3,20.8
		L18.9,7.7c1,0.7,1.3,1.1,1.4,2.2c0.1,0.9-0.2,1.8-0.8,2.5l-4.1,4.5c-0.3,0.4-0.7,1.3,0.3,1.9l0.1,0.1C21.4,23,15.8,36.6,12,43
		c-1.3-0.6-2.4-1.3-3.5-2.2c-5.9-5.1-6.5-14-1.3-19.9c0,0,0,0,0,0L7.3,20.8z M14.4,44c2.6-4.2,4.4-8.8,5.6-13.6
		c3.5,3.1,4.5,6.9,4.9,12.1C22.4,43.8,18.1,45.1,14.4,44z M43.7,22.5c-16.6,18.7-14.9,17-16.2,18.1c-0.4-7.4-5.4-11.9-7-13.2
		c0.8-5.5-0.5-8.2-2-9.9c0.1-0.1,11.4-13,11.4-13c0.8-0.8,2-1.1,2.8-0.3c0.8,0.8,0.8,1.9,0,2.8L21.6,19.4c-0.3,0.4-0.4,1.2,0.2,1.8
		c0.7,0.7,1.5,0.4,1.8,0.1c0.1-0.1,14.5-16.4,14.5-16.4c0.8-0.8,1.8-1.2,2.7-0.5c0.8,0.8,0.9,1.6,0.2,2.5L26.4,23.3
		c-0.3,0.4-0.9,1.1-0.1,1.9c0.7,0.7,1.4,0.3,1.8,0L39.8,12c0.8-0.8,1.9-1,2.8-0.2c0.8,0.8,0.8,1.8,0.1,2.7L31,27.7
		c-0.4,0.3-0.9,1.2-0.2,1.9c0.8,0.8,1.5,0.1,1.9-0.2c0.1-0.1,8.3-9.3,8.3-9.3c0.8-0.8,1.9-1.1,2.8-0.4c0.8,0.7,0.7,1.7,0.1,2.6
		L43.7,22.5z"/>
</g>
</svg>
