<svg id="Layer_1" data-name="Layer 1" xmlns="http://www.w3.org/2000/svg" viewBox="0 0 48 48.17"><title>noun_1075645_cc</title><path d="M46.6,17.6h0a3.73,3.73,0,0,0-2.1-1l1.3-1.5a4.17,4.17,0,0,0-.4-6,3.73,3.73,0,0,0-2.1-1l.7-.8a4.17,4.17,0,0,0-.4-6,4.17,4.17,0,0,0-6,.4L36.3,3.2a3.9,3.9,0,0,0-1.3-2,4.17,4.17,0,0,0-6,.4L22.4,9c-.3-2.5-1.9-3.5-3.2-4.7a1,1,0,0,0-1.4.1L4.5,19.4A17,17,0,0,0,5.9,43.7c7.7,6.8,18.2,4.2,20.8,1.7,2.9-1.8,2.4-1.6,20.2-21.7A4.38,4.38,0,0,0,46.6,17.6ZM5.9,20.5,18.5,6.3a4.17,4.17,0,0,1,1.8,3.1,3.7,3.7,0,0,1-.9,2.7L15,17a1,1,0,0,0,.2,1.5c6,4.4-.1,19.1-4.2,26.1a17.26,17.26,0,0,1-3.8-2.4A15.27,15.27,0,0,1,5.9,20.5Zm7,24.8A52.69,52.69,0,0,0,19,30.6,17.77,17.77,0,0,1,25,44,15.11,15.11,0,0,1,12.9,45.3Zm32.5-23C27.4,42.6,28.5,41.5,27,42.7c-.4-8-5.9-12.9-7.6-14.3.9-6-.5-8.9-2.2-10.7.1-.1,13.2-14.9,13.2-14.9a2.33,2.33,0,0,1,3.2-.2,2.33,2.33,0,0,1,.2,3.2L21.5,19.6A1,1,0,0,0,23,20.9c.1-.1,16-18,16-18a2.33,2.33,0,0,1,3.2-.2,2.33,2.33,0,0,1,.2,3.2l-16,18a1,1,0,0,0,1.5,1.3L40.8,10.7h0a2.27,2.27,0,0,1,3.4,3L31.3,28.3a1,1,0,1,0,1.5,1.3L42,19.3h0a2.33,2.33,0,0,1,3.2-.2A2.16,2.16,0,0,1,45.4,22.3Z"/></svg>